# xmcd
#
# Track frame offsets:
#  150
#  12538
#  24776
#  36347
#  48062
#  59786
#  69982
#  81392
#  94532
#  107329
#  119602
#  136261
#  157862
#  172110
#  180986
#  194641
#  209589
#  225132
#  240030
#  256691
#
# Disc length: 3602 seconds
#
# Revision: 0
# Processed by: cddbd v1.5.1PL2 Copyright (c) Steve Scherf et al.
# Submitted via: Collectorz.com_Music_Collector 6.10
#
DISCID=fa0e1014
DTITLE=Various Artist - Country Classics The Best Of [CD2)
DYEAR=2003
DGENRE=Country
TTITLE0=Johnny Cash - I Walk The Line
TTITLE1=Merle Haggard - Okie From Muskogee
TTITLE2=Patsy Cline - Walkin' After Midnight
TTITLE3=Jerry Wallace - If You Leave Me Tonight I'll Cry
TTITLE4=Troy Shondell - This Time
TTITLE5=Roger Miller - Engine Engine No.9
TTITLE6=The Kendalls - Heaven's Just A Sin Away
TTITLE7=Conway Twitty - Danny Boy
TTITLE8=Bill Anderson - Still
TTITLE9=Merle Haggard - Everbody's Had The Blues
TTITLE10=Lee Greenwood - Ring On Her Finger , Time On Her Hands
TTITLE11=Kenny Rogers - Have I Told You Lately That I Love You
TTITLE12=T.Graham Brown - Hell And High Water
TTITLE13=Sandy Posey - Born A Woman
TTITLE14=Mel McDaniel - Baby's Got Het Blue Jeans On
TTITLE15=Ed Bruce - You're The Best Break This Heart Ever Had
TTITLE16=Holly Dunn - Daddy's Hands
TTITLE17=Kenny Rogers - Crazy
TTITLE18=Eddy Raven - Joe Knows How To Live
TTITLE19=T.Graham Brown - I Wish That I Could Hurt That Way Again
EXTD=
EXTT0=
EXTT1=
EXTT2=
EXTT3=
EXTT4=
EXTT5=
EXTT6=
EXTT7=
EXTT8=
EXTT9=
EXTT10=
EXTT11=
EXTT12=
EXTT13=
EXTT14=
EXTT15=
EXTT16=
EXTT17=
EXTT18=
EXTT19=
PLAYORDER=
